<?xml version="1.0" standalone="no"?><!DOCTYPE svg PUBLIC "-//W3C//DTD SVG 1.1//EN" "http://www.w3.org/Graphics/SVG/1.1/DTD/svg11.dtd"><svg id="svg" version="1.1" width="832" height="832" xmlns="http://www.w3.org/2000/svg"><path d="M0.000 416.004 L 0.000 832.008 416.000 831.991 L 832.000 831.973 832.000 415.987 L 832.000 0.000 416.000 0.000 L 0.000 0.000 0.000 416.004 M222.000 37.882 C 222.000 38.917,221.100 40.320,220.000 41.000 C 218.900 41.680,218.000 40.833,218.000 39.118 C 218.000 37.403,218.900 36.000,220.000 36.000 C 221.100 36.000,222.000 36.847,222.000 37.882 M470.000 38.000 C 470.000 39.100,469.603 40.000,469.118 40.000 C 468.633 40.000,467.680 39.100,467.000 38.000 C 466.320 36.900,466.717 36.000,467.882 36.000 C 469.047 36.000,470.000 36.900,470.000 38.000 M194.664 45.154 C 193.368 48.531,190.000 46.936,190.000 42.945 C 190.000 41.316,191.213 40.591,192.874 41.228 C 194.454 41.835,195.260 43.601,194.664 45.154 M539.000 44.000 C 539.680 45.100,539.283 46.000,538.118 46.000 C 536.953 46.000,536.000 45.100,536.000 44.000 C 536.000 42.900,536.397 42.000,536.882 42.000 C 537.367 42.000,538.320 42.900,539.000 44.000 M366.000 82.000 C 366.000 83.100,365.100 84.000,364.000 84.000 C 362.900 84.000,362.000 83.100,362.000 82.000 C 362.000 80.900,362.900 80.000,364.000 80.000 C 365.100 80.000,366.000 80.900,366.000 82.000 M146.000 94.000 C 146.000 95.100,145.100 96.000,144.000 96.000 C 142.900 96.000,142.000 95.100,142.000 94.000 C 142.000 92.900,142.900 92.000,144.000 92.000 C 145.100 92.000,146.000 92.900,146.000 94.000 M388.000 94.000 C 388.000 95.100,387.100 96.000,386.000 96.000 C 384.900 96.000,384.000 95.100,384.000 94.000 C 384.000 92.900,384.900 92.000,386.000 92.000 C 387.100 92.000,388.000 92.900,388.000 94.000 M408.647 97.198 C 407.878 99.204,406.789 99.589,405.509 98.309 C 403.218 96.018,405.436 91.415,408.051 93.031 C 409.027 93.635,409.295 95.510,408.647 97.198 M808.000 94.882 C 808.000 96.993,804.162 97.880,803.020 96.033 C 802.329 94.915,803.167 94.000,804.882 94.000 C 806.597 94.000,808.000 94.397,808.000 94.882 M114.000 114.000 C 114.000 115.100,113.100 116.000,112.000 116.000 C 110.900 116.000,110.000 115.100,110.000 114.000 C 110.000 112.900,110.900 112.000,112.000 112.000 C 113.100 112.000,114.000 112.900,114.000 114.000 M36.000 118.000 C 36.000 119.100,35.100 120.000,34.000 120.000 C 32.900 120.000,32.000 119.100,32.000 118.000 C 32.000 116.900,32.900 116.000,34.000 116.000 C 35.100 116.000,36.000 116.900,36.000 118.000 M260.915 139.862 C 261.547 140.886,261.151 142.289,260.033 142.980 C 258.915 143.671,258.000 142.833,258.000 141.118 C 258.000 137.605,259.200 137.088,260.915 139.862 M672.000 142.000 C 672.000 143.100,671.100 144.000,670.000 144.000 C 668.900 144.000,668.000 143.100,668.000 142.000 C 668.000 140.900,668.900 140.000,670.000 140.000 C 671.100 140.000,672.000 140.900,672.000 142.000 M345.000 176.000 C 344.320 177.100,342.917 178.000,341.882 178.000 C 340.847 178.000,340.000 177.100,340.000 176.000 C 340.000 174.900,341.403 174.000,343.118 174.000 C 344.833 174.000,345.680 174.900,345.000 176.000 M612.000 190.000 C 612.000 191.100,611.100 192.000,610.000 192.000 C 608.900 192.000,608.000 191.100,608.000 190.000 C 608.000 188.900,608.900 188.000,610.000 188.000 C 611.100 188.000,612.000 188.900,612.000 190.000 M790.647 195.198 C 789.878 197.204,788.789 197.589,787.509 196.309 C 785.218 194.018,787.436 189.415,790.051 191.031 C 791.027 191.635,791.295 193.510,790.647 195.198 M450.000 200.118 C 450.000 201.153,448.678 202.000,447.063 202.000 C 445.279 202.000,444.576 200.827,445.272 199.011 C 446.453 195.935,450.000 196.765,450.000 200.118 M700.000 212.000 C 700.000 213.100,699.100 214.000,698.000 214.000 C 696.900 214.000,696.000 213.100,696.000 212.000 C 696.000 210.900,696.900 210.000,698.000 210.000 C 699.100 210.000,700.000 210.900,700.000 212.000 M548.000 212.882 C 548.000 213.367,547.100 214.320,546.000 215.000 C 544.900 215.680,544.000 215.283,544.000 214.118 C 544.000 212.953,544.900 212.000,546.000 212.000 C 547.100 212.000,548.000 212.397,548.000 212.882 M144.000 220.882 C 144.000 221.367,143.100 222.320,142.000 223.000 C 140.900 223.680,140.000 223.283,140.000 222.118 C 140.000 220.953,140.900 220.000,142.000 220.000 C 143.100 220.000,144.000 220.397,144.000 220.882 M78.000 230.000 C 78.000 231.100,77.100 232.000,76.000 232.000 C 74.900 232.000,74.000 231.100,74.000 230.000 C 74.000 228.900,74.900 228.000,76.000 228.000 C 77.100 228.000,78.000 228.900,78.000 230.000 M124.000 230.000 C 124.000 231.100,123.047 232.000,121.882 232.000 C 120.717 232.000,120.320 231.100,121.000 230.000 C 121.680 228.900,122.633 228.000,123.118 228.000 C 123.603 228.000,124.000 228.900,124.000 230.000 M273.000 240.000 C 273.680 241.100,273.283 242.000,272.118 242.000 C 270.953 242.000,270.000 241.100,270.000 240.000 C 270.000 238.900,270.397 238.000,270.882 238.000 C 271.367 238.000,272.320 238.900,273.000 240.000 M685.811 259.708 C 682.855 260.724,681.354 258.664,683.050 255.920 C 684.125 254.180,684.936 254.275,686.186 256.286 C 687.176 257.880,687.021 259.292,685.811 259.708 M400.000 260.236 C 400.000 261.336,399.100 261.680,398.000 261.000 C 396.900 260.320,396.000 258.864,396.000 257.764 C 396.000 256.664,396.900 256.320,398.000 257.000 C 399.100 257.680,400.000 259.136,400.000 260.236 M160.000 264.000 C 160.000 265.100,159.100 266.000,158.000 266.000 C 156.900 266.000,156.000 265.100,156.000 264.000 C 156.000 262.900,156.900 262.000,158.000 262.000 C 159.100 262.000,160.000 262.900,160.000 264.000 M298.000 274.000 C 298.000 275.100,297.100 276.000,296.000 276.000 C 294.900 276.000,294.000 275.100,294.000 274.000 C 294.000 272.900,294.900 272.000,296.000 272.000 C 297.100 272.000,298.000 272.900,298.000 274.000 M765.341 311.325 C 764.750 311.917,763.210 311.748,761.920 310.950 C 760.180 309.875,760.275 309.064,762.286 307.814 C 764.953 306.157,767.538 309.128,765.341 311.325 M584.000 316.000 C 584.000 317.100,583.603 318.000,583.118 318.000 C 582.633 318.000,581.680 317.100,581.000 316.000 C 580.320 314.900,580.717 314.000,581.882 314.000 C 583.047 314.000,584.000 314.900,584.000 316.000 M160.000 346.000 C 160.000 347.100,159.100 348.000,158.000 348.000 C 156.900 348.000,156.000 347.100,156.000 346.000 C 156.000 344.900,156.900 344.000,158.000 344.000 C 159.100 344.000,160.000 344.900,160.000 346.000 M492.000 346.000 C 492.000 347.100,491.100 348.000,490.000 348.000 C 488.900 348.000,488.000 347.100,488.000 346.000 C 488.000 344.900,488.900 344.000,490.000 344.000 C 491.100 344.000,492.000 344.900,492.000 346.000 M316.730 356.437 C 315.012 359.216,312.107 356.048,313.366 352.768 C 314.296 350.344,314.905 350.228,316.146 352.237 C 317.021 353.652,317.283 355.542,316.730 356.437 M31.000 370.000 C 31.680 371.100,31.283 372.000,30.118 372.000 C 28.953 372.000,28.000 371.100,28.000 370.000 C 28.000 368.900,28.397 368.000,28.882 368.000 C 29.367 368.000,30.320 368.900,31.000 370.000 M413.000 376.000 C 413.680 377.100,413.283 378.000,412.118 378.000 C 410.953 378.000,410.000 377.100,410.000 376.000 C 410.000 374.900,410.397 374.000,410.882 374.000 C 411.367 374.000,412.320 374.900,413.000 376.000 M62.000 388.882 C 62.000 389.367,61.100 390.320,60.000 391.000 C 58.900 391.680,58.000 391.283,58.000 390.118 C 58.000 388.953,58.900 388.000,60.000 388.000 C 61.100 388.000,62.000 388.397,62.000 388.882 M496.000 396.000 C 496.000 397.100,495.100 398.000,494.000 398.000 C 492.900 398.000,492.000 397.100,492.000 396.000 C 492.000 394.900,492.900 394.000,494.000 394.000 C 495.100 394.000,496.000 394.900,496.000 396.000 M420.915 411.862 C 421.547 412.886,421.151 414.289,420.033 414.980 C 418.915 415.671,418.000 414.833,418.000 413.118 C 418.000 409.605,419.200 409.088,420.915 411.862 M90.000 436.000 C 90.000 437.100,89.603 438.000,89.118 438.000 C 88.633 438.000,87.680 437.100,87.000 436.000 C 86.320 434.900,86.717 434.000,87.882 434.000 C 89.047 434.000,90.000 434.900,90.000 436.000 M802.000 438.882 C 802.000 439.367,801.100 440.320,800.000 441.000 C 798.900 441.680,798.000 441.283,798.000 440.118 C 798.000 438.953,798.900 438.000,800.000 438.000 C 801.100 438.000,802.000 438.397,802.000 438.882 M633.811 455.708 C 630.855 456.724,629.354 454.664,631.050 451.920 C 632.125 450.180,632.936 450.275,634.186 452.286 C 635.176 453.880,635.021 455.292,633.811 455.708 M696.000 461.000 C 696.000 462.650,694.650 464.000,693.000 464.000 C 687.795 464.000,689.482 460.058,695.500 458.158 C 695.775 458.071,696.000 459.350,696.000 461.000 M382.000 476.000 C 382.000 477.100,381.047 478.000,379.882 478.000 C 378.717 478.000,378.320 477.100,379.000 476.000 C 379.680 474.900,380.633 474.000,381.118 474.000 C 381.603 474.000,382.000 474.900,382.000 476.000 M428.000 480.000 C 428.000 481.100,427.603 482.000,427.118 482.000 C 426.633 482.000,425.680 481.100,425.000 480.000 C 424.320 478.900,424.717 478.000,425.882 478.000 C 427.047 478.000,428.000 478.900,428.000 480.000 M184.000 486.000 C 184.000 487.100,183.100 488.000,182.000 488.000 C 180.900 488.000,180.000 487.100,180.000 486.000 C 180.000 484.900,180.900 484.000,182.000 484.000 C 183.100 484.000,184.000 484.900,184.000 486.000 M316.000 488.000 C 316.000 489.100,315.100 490.000,314.000 490.000 C 312.900 490.000,312.000 489.100,312.000 488.000 C 312.000 486.900,312.900 486.000,314.000 486.000 C 315.100 486.000,316.000 486.900,316.000 488.000 M544.000 492.000 C 544.000 493.100,543.100 494.000,542.000 494.000 C 540.900 494.000,540.000 493.100,540.000 492.000 C 540.000 490.900,540.900 490.000,542.000 490.000 C 543.100 490.000,544.000 490.900,544.000 492.000 M12.000 504.000 C 12.000 505.100,11.100 506.000,10.000 506.000 C 8.900 506.000,8.000 505.100,8.000 504.000 C 8.000 502.900,8.900 502.000,10.000 502.000 C 11.100 502.000,12.000 502.900,12.000 504.000 M289.139 517.358 C 288.001 520.324,287.500 520.426,285.998 517.997 C 284.862 516.159,285.062 514.579,286.548 513.662 C 289.745 511.685,290.761 513.133,289.139 517.358 M590.000 514.882 C 590.000 516.993,586.162 517.880,585.020 516.033 C 584.329 514.915,585.167 514.000,586.882 514.000 C 588.597 514.000,590.000 514.397,590.000 514.882 M108.000 530.000 C 108.000 531.100,107.047 532.000,105.882 532.000 C 104.717 532.000,104.320 531.100,105.000 530.000 C 105.680 528.900,106.633 528.000,107.118 528.000 C 107.603 528.000,108.000 528.900,108.000 530.000 M328.000 542.000 C 328.000 543.100,327.100 544.000,326.000 544.000 C 324.900 544.000,324.000 543.100,324.000 542.000 C 324.000 540.900,324.900 540.000,326.000 540.000 C 327.100 540.000,328.000 540.900,328.000 542.000 M98.000 544.882 C 98.000 545.367,97.100 546.320,96.000 547.000 C 94.900 547.680,94.000 547.283,94.000 546.118 C 94.000 544.953,94.900 544.000,96.000 544.000 C 97.100 544.000,98.000 544.397,98.000 544.882 M692.000 548.000 C 692.000 549.100,690.597 550.000,688.882 550.000 C 687.167 550.000,686.320 549.100,687.000 548.000 C 687.680 546.900,689.083 546.000,690.118 546.000 C 691.153 546.000,692.000 546.900,692.000 548.000 M806.000 548.000 C 806.000 549.100,805.603 550.000,805.118 550.000 C 804.633 550.000,803.680 549.100,803.000 548.000 C 802.320 546.900,802.717 546.000,803.882 546.000 C 805.047 546.000,806.000 546.900,806.000 548.000 M542.000 552.000 C 542.000 553.100,541.100 554.000,540.000 554.000 C 538.900 554.000,538.000 553.100,538.000 552.000 C 538.000 550.900,538.900 550.000,540.000 550.000 C 541.100 550.000,542.000 550.900,542.000 552.000 M63.000 570.000 C 63.680 571.100,63.283 572.000,62.118 572.000 C 60.953 572.000,60.000 571.100,60.000 570.000 C 60.000 568.900,60.397 568.000,60.882 568.000 C 61.367 568.000,62.320 568.900,63.000 570.000 M240.000 586.882 C 240.000 587.367,239.100 588.320,238.000 589.000 C 236.900 589.680,236.000 589.283,236.000 588.118 C 236.000 586.953,236.900 586.000,238.000 586.000 C 239.100 586.000,240.000 586.397,240.000 586.882 M420.000 592.000 C 420.000 593.100,419.100 594.000,418.000 594.000 C 416.900 594.000,416.000 593.100,416.000 592.000 C 416.000 590.900,416.900 590.000,418.000 590.000 C 419.100 590.000,420.000 590.900,420.000 592.000 M490.000 602.000 C 490.000 603.100,489.100 604.000,488.000 604.000 C 486.900 604.000,486.000 603.100,486.000 602.000 C 486.000 600.900,486.900 600.000,488.000 600.000 C 489.100 600.000,490.000 600.900,490.000 602.000 M820.000 608.000 C 820.000 609.100,819.047 610.000,817.882 610.000 C 816.717 610.000,816.320 609.100,817.000 608.000 C 817.680 606.900,818.633 606.000,819.118 606.000 C 819.603 606.000,820.000 606.900,820.000 608.000 M463.333 641.000 C 463.333 642.650,462.583 644.000,461.667 644.000 C 460.750 644.000,460.000 642.650,460.000 641.000 C 460.000 639.350,460.750 638.000,461.667 638.000 C 462.583 638.000,463.333 639.350,463.333 641.000 M204.000 646.000 C 204.000 647.100,203.047 648.000,201.882 648.000 C 200.717 648.000,200.320 647.100,201.000 646.000 C 201.680 644.900,202.633 644.000,203.118 644.000 C 203.603 644.000,204.000 644.900,204.000 646.000 M115.000 680.000 C 114.320 681.100,112.917 682.000,111.882 682.000 C 110.847 682.000,110.000 681.100,110.000 680.000 C 110.000 678.900,111.403 678.000,113.118 678.000 C 114.833 678.000,115.680 678.900,115.000 680.000 M440.000 702.000 C 440.000 703.100,439.100 704.000,438.000 704.000 C 436.900 704.000,436.000 703.100,436.000 702.000 C 436.000 700.900,436.900 700.000,438.000 700.000 C 439.100 700.000,440.000 700.900,440.000 702.000 M550.894 706.171 C 550.250 707.213,548.871 707.538,547.829 706.894 C 546.787 706.250,546.462 704.871,547.106 703.829 C 547.750 702.787,549.129 702.462,550.171 703.106 C 551.213 703.750,551.538 705.129,550.894 706.171 M173.000 710.000 C 173.680 711.100,173.283 712.000,172.118 712.000 C 170.953 712.000,170.000 711.100,170.000 710.000 C 170.000 708.900,170.397 708.000,170.882 708.000 C 171.367 708.000,172.320 708.900,173.000 710.000 M574.000 710.000 C 574.000 711.100,573.100 712.000,572.000 712.000 C 570.900 712.000,570.000 711.100,570.000 710.000 C 570.000 708.900,570.900 708.000,572.000 708.000 C 573.100 708.000,574.000 708.900,574.000 710.000 M790.690 717.086 C 790.039 718.784,789.077 719.744,788.553 719.219 C 788.028 718.695,788.193 717.306,788.918 716.133 C 790.890 712.942,792.043 713.562,790.690 717.086 M18.000 742.000 C 18.000 743.100,17.100 744.000,16.000 744.000 C 14.900 744.000,14.000 743.100,14.000 742.000 C 14.000 740.900,14.900 740.000,16.000 740.000 C 17.100 740.000,18.000 740.900,18.000 742.000 M628.000 754.000 C 628.000 755.100,627.047 756.000,625.882 756.000 C 624.717 756.000,624.320 755.100,625.000 754.000 C 625.680 752.900,626.633 752.000,627.118 752.000 C 627.603 752.000,628.000 752.900,628.000 754.000 M740.000 758.000 C 740.000 759.100,739.603 760.000,739.118 760.000 C 738.633 760.000,737.680 759.100,737.000 758.000 C 736.320 756.900,736.717 756.000,737.882 756.000 C 739.047 756.000,740.000 756.900,740.000 758.000 M702.000 762.000 C 702.000 763.100,701.100 764.000,700.000 764.000 C 698.900 764.000,698.000 763.100,698.000 762.000 C 698.000 760.900,698.900 760.000,700.000 760.000 C 701.100 760.000,702.000 760.900,702.000 762.000 M376.000 764.882 C 376.000 765.367,375.100 766.320,374.000 767.000 C 372.900 767.680,372.000 767.283,372.000 766.118 C 372.000 764.953,372.900 764.000,374.000 764.000 C 375.100 764.000,376.000 764.397,376.000 764.882 M180.000 768.000 C 180.000 769.100,179.047 770.000,177.882 770.000 C 176.717 770.000,176.320 769.100,177.000 768.000 C 177.680 766.900,178.633 766.000,179.118 766.000 C 179.603 766.000,180.000 766.900,180.000 768.000 M442.000 782.118 C 442.000 783.153,440.678 784.000,439.063 784.000 C 437.279 784.000,436.576 782.827,437.272 781.011 C 438.453 777.935,442.000 778.765,442.000 782.118 M488.000 782.000 C 488.000 783.100,487.100 784.000,486.000 784.000 C 484.900 784.000,484.000 783.100,484.000 782.000 C 484.000 780.900,484.900 780.000,486.000 780.000 C 487.100 780.000,488.000 780.900,488.000 782.000 M726.000 784.000 C 726.000 785.100,725.100 786.000,724.000 786.000 C 722.900 786.000,722.000 785.100,722.000 784.000 C 722.000 782.900,722.900 782.000,724.000 782.000 C 725.100 782.000,726.000 782.900,726.000 784.000 M748.000 784.000 C 748.000 785.100,747.100 786.000,746.000 786.000 C 744.900 786.000,744.000 785.100,744.000 784.000 C 744.000 782.900,744.900 782.000,746.000 782.000 C 747.100 782.000,748.000 782.900,748.000 784.000 M520.000 796.000 C 520.000 797.100,519.100 798.000,518.000 798.000 C 516.900 798.000,516.000 797.100,516.000 796.000 C 516.000 794.900,516.900 794.000,518.000 794.000 C 519.100 794.000,520.000 794.900,520.000 796.000 M475.000 800.000 C 475.680 801.100,475.283 802.000,474.118 802.000 C 472.953 802.000,472.000 801.100,472.000 800.000 C 472.000 798.900,472.397 798.000,472.882 798.000 C 473.367 798.000,474.320 798.900,475.000 800.000 M238.000 810.000 C 238.000 811.100,237.100 812.000,236.000 812.000 C 234.900 812.000,234.000 811.100,234.000 810.000 C 234.000 808.900,234.900 808.000,236.000 808.000 C 237.100 808.000,238.000 808.900,238.000 810.000 M253.442 816.114 C 253.295 818.057,252.052 819.127,250.591 818.566 C 247.089 817.222,247.289 812.667,250.851 812.667 C 252.418 812.667,253.584 814.218,253.442 816.114 M196.894 826.171 C 196.250 827.213,194.871 827.538,193.829 826.894 C 192.787 826.250,192.462 824.871,193.106 823.829 C 193.750 822.787,195.129 822.462,196.171 823.106 C 197.213 823.750,197.538 825.129,196.894 826.171 " stroke="none" fill="black" fill-rule="evenodd"/></svg>